<?xml version="1.0" encoding="UTF-8"?>
<svg xmlns="http://www.w3.org/2000/svg" version="1.1" viewBox="0 0 31.3 18">
  <defs>
    <style>
      .cls-1 {
        fill: #fff;
      }
    </style>
  </defs>
  <!-- Generator: Adobe Illustrator 28.6.0, SVG Export Plug-In . SVG Version: 1.2.0 Build 709)  -->
  <g>
    <g id="_レイヤー_1" data-name="レイヤー_1">
      <g>
        <path class="cls-1" d="M17.9,2.8c.7.3,1.1.9,1.3,1.7.1.5,0,1.6,0,2.1-.2.6-.7,1.2-1.1,1.4-.2,0-.3.1-.6.1s-.5,0-.7-.2c-.5-.3-.8-.8-1.1-1.5-.1-.4-.1-.5-.1-1.5,0-.9,0-1.1.1-1.6.2-.7.4-1.3.7-2,.2-.4.4-.6.7-1l.5-.5v1.3s0,1.3,0,1.3l.4.2Z"/>
        <path class="cls-1" d="M14.3,4.2v4s-1.8-3.6-1.8-3.6l-1.8-3.6v17s-3.6,0-3.6,0h-3.6s0-8.5,0-8.5V1s-.3.5-.3.5c-.1.3-.9,1.9-1.8,3.6L0,8.2v-4s0-4,0-4h14.3v3.9Z"/>
        <path class="cls-1" d="M24.2,5.4c-.2.4-3.5,8.5-3.5,8.7,0,0,0-1.9,0-4.5v-4.6s1.9,0,1.9,0h1.9l-.2.4Z"/>
        <path class="cls-1" d="M31.2,5s-1.2,3-2.7,6.5l-2.7,6.5h-2.8c-2.7,0-2.8,0-2.8,0,0,0,1.2-3,2.7-6.5l2.6-6.4h2.9c1.7,0,2.9,0,2.8,0Z"/>
        <path class="cls-1" d="M31.3,12.8v5.2h-2.1c-1.2,0-2.1,0-2.1,0,.1-.3,4.2-10.3,4.2-10.3s0,2.3,0,5.2Z"/>
      </g>
    </g>
  </g>
</svg>