<?xml version="1.0" encoding="UTF-8"?>
<svg xmlns="http://www.w3.org/2000/svg" version="1.1" viewBox="0 0 9 7">
  <defs>
    <style>
      .cls-1 {
        fill: #fff;
      }
    </style>
  </defs>
  <!-- Generator: Adobe Illustrator 28.6.0, SVG Export Plug-In . SVG Version: 1.2.0 Build 709)  -->
  <g>
    <g id="_レイヤー_1" data-name="レイヤー_1">
      <path class="cls-1" d="M.8,7c-.2,0-.4,0-.6-.2-.2-.2-.2-.3-.2-.6V.8c0-.2,0-.4.2-.6C.4,0,.6,0,.8,0h7.4c.2,0,.4,0,.6.2.2.2.2.3.2.6v5.4c0,.2,0,.4-.2.6s-.3.2-.6.2H.8ZM4.5,3.6L.5.9v5.2c0,0,0,.2,0,.2,0,0,.1,0,.2,0h7.4c0,0,.2,0,.2,0s0-.1,0-.2V.9l-4,2.6ZM4.5,3l3.8-2.5H.7l3.8,2.5ZM.5.9v-.4,5.7c0,0,0,.2,0,.2,0,0,.1,0,.2,0h-.3V.9Z"/>
    </g>
  </g>
</svg>